<svg width="352" height="29" viewBox="0 0 352 29" fill="none" xmlns="http://www.w3.org/2000/svg">
<g clip-path="url(#clip0_129_54)">
<g clip-path="url(#clip1_129_54)">
<path d="M0.492188 20.4077L31.9999 8.59229L63.5076 20.4077M63.5076 8.59229L31.9999 20.4077L0.492188 8.59229" stroke="#EFC9A4" stroke-width="0.492308"/>
</g>
</g>
<path d="M85.314 7.4H87.438V15.77C87.438 16.55 87.642 17.18 88.05 17.66C88.47 18.128 89.088 18.362 89.904 18.362C90.708 18.362 91.32 18.128 91.74 17.66C92.16 17.18 92.37 16.55 92.37 15.77V7.4H94.494V15.86C94.494 16.556 94.38 17.18 94.152 17.732C93.936 18.272 93.624 18.734 93.216 19.118C92.808 19.502 92.322 19.796 91.758 20C91.194 20.204 90.576 20.306 89.904 20.306C89.232 20.306 88.614 20.204 88.05 20C87.486 19.796 86.994 19.502 86.574 19.118C86.166 18.734 85.854 18.272 85.638 17.732C85.422 17.18 85.314 16.556 85.314 15.86V7.4ZM106.415 7.4H108.503V20.63L99.3045 11.54V20H97.2165V6.77L106.415 15.86V7.4ZM112.125 15.95C112.401 16.43 112.695 16.856 113.007 17.228C113.331 17.588 113.685 17.87 114.069 18.074C114.453 18.266 114.885 18.362 115.365 18.362C115.941 18.362 116.409 18.206 116.769 17.894C117.129 17.582 117.309 17.18 117.309 16.688C117.309 16.22 117.195 15.848 116.967 15.572C116.739 15.284 116.421 15.044 116.013 14.852C115.617 14.648 115.155 14.45 114.627 14.258C114.315 14.15 113.967 14.006 113.583 13.826C113.199 13.634 112.833 13.4 112.485 13.124C112.137 12.836 111.849 12.488 111.621 12.08C111.393 11.66 111.279 11.156 111.279 10.568C111.279 9.896 111.453 9.308 111.801 8.804C112.149 8.288 112.617 7.892 113.205 7.616C113.805 7.328 114.483 7.184 115.239 7.184C115.983 7.184 116.631 7.316 117.183 7.58C117.735 7.844 118.197 8.18 118.569 8.588C118.953 8.996 119.253 9.422 119.469 9.866L117.741 10.838C117.585 10.526 117.387 10.238 117.147 9.974C116.907 9.698 116.625 9.482 116.301 9.326C115.989 9.158 115.623 9.074 115.203 9.074C114.615 9.074 114.183 9.212 113.907 9.488C113.631 9.752 113.493 10.064 113.493 10.424C113.493 10.748 113.589 11.042 113.781 11.306C113.985 11.558 114.297 11.798 114.717 12.026C115.137 12.254 115.683 12.488 116.355 12.728C116.727 12.86 117.099 13.028 117.471 13.232C117.855 13.436 118.203 13.694 118.515 14.006C118.827 14.306 119.073 14.66 119.253 15.068C119.445 15.476 119.541 15.956 119.541 16.508C119.541 17.096 119.427 17.624 119.199 18.092C118.971 18.56 118.659 18.956 118.263 19.28C117.867 19.592 117.417 19.832 116.913 20C116.421 20.18 115.905 20.27 115.365 20.27C114.621 20.27 113.931 20.126 113.295 19.838C112.671 19.538 112.125 19.142 111.657 18.65C111.189 18.158 110.817 17.624 110.541 17.048L112.125 15.95ZM123.034 20V18.128H129.388V20H123.034ZM123.034 9.272V7.4H129.388V9.272H123.034ZM123.034 14.168V12.332H129.028V14.168H123.034ZM121.72 7.4H123.808V20H121.72V7.4ZM134.596 13.988H136.9L141.166 20H138.61L134.596 13.988ZM132.004 7.4H134.128V20H132.004V7.4ZM133.264 9.236V7.4H135.892C136.804 7.4 137.596 7.562 138.268 7.886C138.952 8.21 139.48 8.666 139.852 9.254C140.224 9.83 140.41 10.514 140.41 11.306C140.41 12.098 140.224 12.788 139.852 13.376C139.48 13.964 138.952 14.42 138.268 14.744C137.596 15.068 136.804 15.23 135.892 15.23H133.264V13.484H135.802C136.282 13.484 136.702 13.4 137.062 13.232C137.434 13.064 137.722 12.824 137.926 12.512C138.13 12.188 138.232 11.804 138.232 11.36C138.232 10.904 138.13 10.52 137.926 10.208C137.722 9.896 137.434 9.656 137.062 9.488C136.702 9.32 136.282 9.236 135.802 9.236H133.264ZM144.023 20V18.128H150.377V20H144.023ZM144.023 9.272V7.4H150.377V9.272H144.023ZM144.023 14.168V12.332H150.017V14.168H144.023ZM142.709 7.4H144.797V20H142.709V7.4ZM164.382 15.212V13.412H170.448C170.472 14.336 170.352 15.212 170.088 16.04C169.824 16.856 169.428 17.582 168.9 18.218C168.372 18.854 167.712 19.358 166.92 19.73C166.14 20.09 165.252 20.27 164.256 20.27C163.308 20.27 162.432 20.114 161.628 19.802C160.824 19.478 160.122 19.022 159.522 18.434C158.934 17.846 158.478 17.15 158.154 16.346C157.83 15.542 157.668 14.66 157.668 13.7C157.668 12.74 157.83 11.864 158.154 11.072C158.49 10.268 158.952 9.578 159.54 9.002C160.14 8.414 160.842 7.964 161.646 7.652C162.462 7.34 163.344 7.184 164.292 7.184C165.12 7.184 165.87 7.298 166.542 7.526C167.214 7.742 167.814 8.06 168.342 8.48C168.882 8.888 169.338 9.386 169.71 9.974L167.982 11.126C167.634 10.526 167.148 10.046 166.524 9.686C165.912 9.326 165.168 9.146 164.292 9.146C163.476 9.146 162.738 9.338 162.078 9.722C161.418 10.094 160.89 10.622 160.494 11.306C160.098 11.978 159.9 12.776 159.9 13.7C159.9 14.612 160.092 15.416 160.476 16.112C160.872 16.796 161.4 17.33 162.06 17.714C162.72 18.098 163.464 18.29 164.292 18.29C164.856 18.29 165.36 18.212 165.804 18.056C166.248 17.9 166.632 17.678 166.956 17.39C167.28 17.102 167.55 16.772 167.766 16.4C167.982 16.028 168.144 15.632 168.252 15.212H164.382ZM173.941 20V18.128H180.295V20H173.941ZM173.941 9.272V7.4H180.295V9.272H173.941ZM173.941 14.168V12.332H179.935V14.168H173.941ZM172.627 7.4H174.715V20H172.627V7.4ZM183.738 15.95C184.014 16.43 184.308 16.856 184.62 17.228C184.944 17.588 185.298 17.87 185.682 18.074C186.066 18.266 186.498 18.362 186.978 18.362C187.554 18.362 188.022 18.206 188.382 17.894C188.742 17.582 188.922 17.18 188.922 16.688C188.922 16.22 188.808 15.848 188.58 15.572C188.352 15.284 188.034 15.044 187.626 14.852C187.23 14.648 186.768 14.45 186.24 14.258C185.928 14.15 185.58 14.006 185.196 13.826C184.812 13.634 184.446 13.4 184.098 13.124C183.75 12.836 183.462 12.488 183.234 12.08C183.006 11.66 182.892 11.156 182.892 10.568C182.892 9.896 183.066 9.308 183.414 8.804C183.762 8.288 184.23 7.892 184.818 7.616C185.418 7.328 186.096 7.184 186.852 7.184C187.596 7.184 188.244 7.316 188.796 7.58C189.348 7.844 189.81 8.18 190.182 8.588C190.566 8.996 190.866 9.422 191.082 9.866L189.354 10.838C189.198 10.526 189 10.238 188.76 9.974C188.52 9.698 188.238 9.482 187.914 9.326C187.602 9.158 187.236 9.074 186.816 9.074C186.228 9.074 185.796 9.212 185.52 9.488C185.244 9.752 185.106 10.064 185.106 10.424C185.106 10.748 185.202 11.042 185.394 11.306C185.598 11.558 185.91 11.798 186.33 12.026C186.75 12.254 187.296 12.488 187.968 12.728C188.34 12.86 188.712 13.028 189.084 13.232C189.468 13.436 189.816 13.694 190.128 14.006C190.44 14.306 190.686 14.66 190.866 15.068C191.058 15.476 191.154 15.956 191.154 16.508C191.154 17.096 191.04 17.624 190.812 18.092C190.584 18.56 190.272 18.956 189.876 19.28C189.48 19.592 189.03 19.832 188.526 20C188.034 20.18 187.518 20.27 186.978 20.27C186.234 20.27 185.544 20.126 184.908 19.838C184.284 19.538 183.738 19.142 183.27 18.65C182.802 18.158 182.43 17.624 182.154 17.048L183.738 15.95ZM194.9 13.7C194.9 14.588 195.098 15.368 195.494 16.04C195.902 16.712 196.43 17.234 197.078 17.606C197.738 17.966 198.452 18.146 199.22 18.146C199.82 18.146 200.36 18.068 200.84 17.912C201.32 17.756 201.752 17.546 202.136 17.282C202.532 17.006 202.874 16.7 203.162 16.364V18.884C202.634 19.316 202.064 19.646 201.452 19.874C200.84 20.102 200.072 20.216 199.148 20.216C198.224 20.216 197.36 20.06 196.556 19.748C195.764 19.436 195.074 18.986 194.486 18.398C193.898 17.81 193.436 17.12 193.1 16.328C192.776 15.524 192.614 14.648 192.614 13.7C192.614 12.752 192.776 11.882 193.1 11.09C193.436 10.286 193.898 9.59 194.486 9.002C195.074 8.414 195.764 7.964 196.556 7.652C197.36 7.34 198.224 7.184 199.148 7.184C200.072 7.184 200.84 7.298 201.452 7.526C202.064 7.754 202.634 8.084 203.162 8.516V11.036C202.874 10.7 202.532 10.4 202.136 10.136C201.752 9.86 201.32 9.644 200.84 9.488C200.36 9.332 199.82 9.254 199.22 9.254C198.452 9.254 197.738 9.44 197.078 9.812C196.43 10.172 195.902 10.688 195.494 11.36C195.098 12.02 194.9 12.8 194.9 13.7ZM206.625 14.222V12.26H215.607V14.222H206.625ZM214.239 7.4H216.363V20H214.239V7.4ZM205.779 7.4H207.903V20H205.779V7.4ZM219.174 7.4H221.316V20H219.174V7.4ZM225.697 13.7C225.697 14.588 225.895 15.368 226.291 16.04C226.699 16.712 227.227 17.234 227.875 17.606C228.535 17.966 229.249 18.146 230.017 18.146C230.617 18.146 231.157 18.068 231.637 17.912C232.117 17.756 232.549 17.546 232.933 17.282C233.329 17.006 233.671 16.7 233.959 16.364V18.884C233.431 19.316 232.861 19.646 232.249 19.874C231.637 20.102 230.869 20.216 229.945 20.216C229.021 20.216 228.157 20.06 227.353 19.748C226.561 19.436 225.871 18.986 225.283 18.398C224.695 17.81 224.233 17.12 223.897 16.328C223.573 15.524 223.411 14.648 223.411 13.7C223.411 12.752 223.573 11.882 223.897 11.09C224.233 10.286 224.695 9.59 225.283 9.002C225.871 8.414 226.561 7.964 227.353 7.652C228.157 7.34 229.021 7.184 229.945 7.184C230.869 7.184 231.637 7.298 232.249 7.526C232.861 7.754 233.431 8.084 233.959 8.516V11.036C233.671 10.7 233.329 10.4 232.933 10.136C232.549 9.86 232.117 9.644 231.637 9.488C231.157 9.332 230.617 9.254 230.017 9.254C229.249 9.254 228.535 9.44 227.875 9.812C227.227 10.172 226.699 10.688 226.291 11.36C225.895 12.02 225.697 12.8 225.697 13.7ZM237.422 14.222V12.26H246.404V14.222H237.422ZM245.036 7.4H247.16V20H245.036V7.4ZM236.576 7.4H238.7V20H236.576V7.4ZM248.71 9.362V7.4H257.494V9.362H254.164V20H252.022V9.362H248.71ZM260.355 20V18.128H266.709V20H260.355ZM260.355 9.272V7.4H266.709V9.272H260.355ZM260.355 14.168V12.332H266.349V14.168H260.355ZM259.041 7.4H261.129V20H259.041V7.4Z" fill="#EFC9A4"/>
<g clip-path="url(#clip2_129_54)">
<g clip-path="url(#clip3_129_54)">
<path d="M288.492 20.4077L320 8.59229L351.508 20.4077M351.508 8.59229L320 20.4077L288.492 8.59229" stroke="#EFC9A4" stroke-width="0.492308"/>
</g>
</g>
<defs>
<clipPath id="clip0_129_54">
<rect width="64" height="12" fill="white" transform="translate(0 8.5)"/>
</clipPath>
<clipPath id="clip1_129_54">
<rect width="64" height="12" fill="white" transform="translate(0 8.5)"/>
</clipPath>
<clipPath id="clip2_129_54">
<rect width="64" height="12" fill="white" transform="translate(288 8.5)"/>
</clipPath>
<clipPath id="clip3_129_54">
<rect width="64" height="12" fill="white" transform="translate(288 8.5)"/>
</clipPath>
</defs>
</svg>
