<svg width="342" height="29" viewBox="0 0 342 29" fill="none" xmlns="http://www.w3.org/2000/svg">
<g clip-path="url(#clip0_129_183)">
<g clip-path="url(#clip1_129_183)">
<path d="M0.492188 20.4077L31.9999 8.59229L63.5076 20.4077M63.5076 8.59229L31.9999 20.4077L0.492188 8.59229" stroke="#04242C" stroke-width="0.492308"/>
</g>
</g>
<path d="M88.798 15.842L91.75 7.4H94.216L89.068 20.666L85.18 11.756L81.292 20.666L76.144 7.4H78.61L81.598 15.842L85.18 6.77L88.798 15.842ZM95.4746 16.76L95.8706 14.96H101.721L102.135 16.76H95.4746ZM98.7686 10.964L96.7886 15.59L96.7526 16.058L95.0066 20H92.6126L98.7686 6.698L104.925 20H102.531L100.821 16.166L100.767 15.644L98.7686 10.964ZM108.982 13.988H111.286L115.552 20H112.996L108.982 13.988ZM106.39 7.4H108.514V20H106.39V7.4ZM107.65 9.236V7.4H110.278C111.19 7.4 111.982 7.562 112.654 7.886C113.338 8.21 113.866 8.666 114.238 9.254C114.61 9.83 114.796 10.514 114.796 11.306C114.796 12.098 114.61 12.788 114.238 13.376C113.866 13.964 113.338 14.42 112.654 14.744C111.982 15.068 111.19 15.23 110.278 15.23H107.65V13.484H110.188C110.668 13.484 111.088 13.4 111.448 13.232C111.82 13.064 112.108 12.824 112.312 12.512C112.516 12.188 112.618 11.804 112.618 11.36C112.618 10.904 112.516 10.52 112.312 10.208C112.108 9.896 111.82 9.656 111.448 9.488C111.088 9.32 110.668 9.236 110.188 9.236H107.65ZM117.005 7.4H119.129V15.77C119.129 16.55 119.333 17.18 119.741 17.66C120.161 18.128 120.779 18.362 121.595 18.362C122.399 18.362 123.011 18.128 123.431 17.66C123.851 17.18 124.061 16.55 124.061 15.77V7.4H126.185V15.86C126.185 16.556 126.071 17.18 125.843 17.732C125.627 18.272 125.315 18.734 124.907 19.118C124.499 19.502 124.013 19.796 123.449 20C122.885 20.204 122.267 20.306 121.595 20.306C120.923 20.306 120.305 20.204 119.741 20C119.177 19.796 118.685 19.502 118.265 19.118C117.857 18.734 117.545 18.272 117.329 17.732C117.113 17.18 117.005 16.556 117.005 15.86V7.4ZM131.248 12.332L130.384 20H128.188L129.916 6.77L135.082 15.32L140.266 6.77L141.994 20H139.798L138.916 12.332L135.082 18.83L131.248 12.332ZM149.367 7.4H151.491V15.77C151.491 16.55 151.695 17.18 152.103 17.66C152.523 18.128 153.141 18.362 153.957 18.362C154.761 18.362 155.373 18.128 155.793 17.66C156.213 17.18 156.423 16.55 156.423 15.77V7.4H158.547V15.86C158.547 16.556 158.433 17.18 158.205 17.732C157.989 18.272 157.677 18.734 157.269 19.118C156.861 19.502 156.375 19.796 155.811 20C155.247 20.204 154.629 20.306 153.957 20.306C153.285 20.306 152.667 20.204 152.103 20C151.539 19.796 151.047 19.502 150.627 19.118C150.219 18.734 149.907 18.272 149.691 17.732C149.475 17.18 149.367 16.556 149.367 15.86V7.4ZM170.467 7.4H172.555V20.63L163.357 11.54V20H161.269V6.77L170.467 15.86V7.4ZM176.177 15.95C176.453 16.43 176.747 16.856 177.059 17.228C177.383 17.588 177.737 17.87 178.121 18.074C178.505 18.266 178.937 18.362 179.417 18.362C179.993 18.362 180.461 18.206 180.821 17.894C181.181 17.582 181.361 17.18 181.361 16.688C181.361 16.22 181.247 15.848 181.019 15.572C180.791 15.284 180.473 15.044 180.065 14.852C179.669 14.648 179.207 14.45 178.679 14.258C178.367 14.15 178.019 14.006 177.635 13.826C177.251 13.634 176.885 13.4 176.537 13.124C176.189 12.836 175.901 12.488 175.673 12.08C175.445 11.66 175.331 11.156 175.331 10.568C175.331 9.896 175.505 9.308 175.853 8.804C176.201 8.288 176.669 7.892 177.257 7.616C177.857 7.328 178.535 7.184 179.291 7.184C180.035 7.184 180.683 7.316 181.235 7.58C181.787 7.844 182.249 8.18 182.621 8.588C183.005 8.996 183.305 9.422 183.521 9.866L181.793 10.838C181.637 10.526 181.439 10.238 181.199 9.974C180.959 9.698 180.677 9.482 180.353 9.326C180.041 9.158 179.675 9.074 179.255 9.074C178.667 9.074 178.235 9.212 177.959 9.488C177.683 9.752 177.545 10.064 177.545 10.424C177.545 10.748 177.641 11.042 177.833 11.306C178.037 11.558 178.349 11.798 178.769 12.026C179.189 12.254 179.735 12.488 180.407 12.728C180.779 12.86 181.151 13.028 181.523 13.232C181.907 13.436 182.255 13.694 182.567 14.006C182.879 14.306 183.125 14.66 183.305 15.068C183.497 15.476 183.593 15.956 183.593 16.508C183.593 17.096 183.479 17.624 183.251 18.092C183.023 18.56 182.711 18.956 182.315 19.28C181.919 19.592 181.469 19.832 180.965 20C180.473 20.18 179.957 20.27 179.417 20.27C178.673 20.27 177.983 20.126 177.347 19.838C176.723 19.538 176.177 19.142 175.709 18.65C175.241 18.158 174.869 17.624 174.593 17.048L176.177 15.95ZM202.564 15.842L205.516 7.4H207.982L202.834 20.666L198.946 11.756L195.058 20.666L189.91 7.4H192.376L195.364 15.842L198.946 6.77L202.564 15.842ZM209.24 16.76L209.636 14.96H215.486L215.9 16.76H209.24ZM212.534 10.964L210.554 15.59L210.518 16.058L208.772 20H206.378L212.534 6.698L218.69 20H216.296L214.586 16.166L214.532 15.644L212.534 10.964ZM213.398 4.844C213.398 4.508 213.518 4.226 213.758 3.998C213.998 3.77 214.286 3.656 214.622 3.656C214.97 3.656 215.258 3.77 215.486 3.998C215.726 4.226 215.846 4.508 215.846 4.844C215.846 5.168 215.726 5.45 215.486 5.69C215.258 5.918 214.97 6.032 214.622 6.032C214.286 6.032 213.998 5.918 213.758 5.69C213.518 5.45 213.398 5.168 213.398 4.844ZM209.168 4.79C209.168 4.454 209.288 4.178 209.528 3.962C209.78 3.734 210.068 3.62 210.392 3.62C210.74 3.62 211.028 3.734 211.256 3.962C211.496 4.178 211.616 4.454 211.616 4.79C211.616 5.126 211.496 5.408 211.256 5.636C211.028 5.864 210.74 5.978 210.392 5.978C210.068 5.978 209.78 5.864 209.528 5.636C209.288 5.408 209.168 5.126 209.168 4.79ZM221.002 14.222V12.26H229.984V14.222H221.002ZM228.616 7.4H230.74V20H228.616V7.4ZM220.156 7.4H222.28V20H220.156V7.4ZM233.55 7.4H235.674V18.092H240.678V20H233.55V7.4ZM243.531 20V18.128H249.885V20H243.531ZM243.531 9.272V7.4H249.885V9.272H243.531ZM243.531 14.168V12.332H249.525V14.168H243.531ZM242.217 7.4H244.305V20H242.217V7.4ZM261.698 7.4H263.786V20.63L254.588 11.54V20H252.5V6.77L261.698 15.86V7.4Z" fill="#04242C"/>
<g clip-path="url(#clip2_129_183)">
<g clip-path="url(#clip3_129_183)">
<path d="M278.492 20.4077L310 8.59229L341.508 20.4077M341.508 8.59229L310 20.4077L278.492 8.59229" stroke="#04242C" stroke-width="0.492308"/>
</g>
</g>
<defs>
<clipPath id="clip0_129_183">
<rect width="64" height="12" fill="white" transform="translate(0 8.5)"/>
</clipPath>
<clipPath id="clip1_129_183">
<rect width="64" height="12" fill="white" transform="translate(0 8.5)"/>
</clipPath>
<clipPath id="clip2_129_183">
<rect width="64" height="12" fill="white" transform="translate(278 8.5)"/>
</clipPath>
<clipPath id="clip3_129_183">
<rect width="64" height="12" fill="white" transform="translate(278 8.5)"/>
</clipPath>
</defs>
</svg>
