<svg width="70" height="52" viewBox="0 0 70 52" fill="none" xmlns="http://www.w3.org/2000/svg">
<path opacity="0.2" d="M19.556 24.355H5.333C5.333 15.679 10.543 8.195 17.991 4.87L15.822 0C6.498 4.141 7.03399e-08 13.492 7.03399e-08 24.354V43.909C-0.000131284 44.8429 0.183711 45.7676 0.541025 46.6304C0.89834 47.4932 1.42213 48.2772 2.08247 48.9375C2.74281 49.5979 3.52678 50.1217 4.38958 50.479C5.25239 50.8363 6.17713 51.0201 7.111 51.02H26.668V31.466C26.6681 30.5321 26.4843 29.6074 26.127 28.7446C25.7697 27.8818 25.2459 27.0978 24.5855 26.4375C23.9252 25.7771 23.1412 25.2533 22.2784 24.896C21.4156 24.5387 20.4899 24.3549 19.556 24.355ZM62.222 24.355H48C48 15.679 53.209 8.195 60.658 4.87L58.488 0C49.165 4.141 42.668 13.492 42.668 24.354V43.909C42.6679 44.8428 42.8517 45.7674 43.2089 46.6302C43.5662 47.4929 44.0899 48.2768 44.7501 48.9372C45.4104 49.5975 46.1942 50.1213 47.0569 50.4787C47.9196 50.8361 48.8442 51.02 49.778 51.02H69.334V31.466C69.3341 30.5322 69.1503 29.6076 68.7931 28.7448C68.4358 27.8821 67.9121 27.0982 67.2519 26.4378C66.5916 25.7775 65.8078 25.2537 64.9451 24.8963C64.0824 24.5389 63.1578 24.355 62.224 24.355H62.222Z" fill="#EFC9A4"/>
</svg>
