<svg width="284" height="29" viewBox="0 0 284 29" fill="none" xmlns="http://www.w3.org/2000/svg">
<g clip-path="url(#clip0_207_2)">
<g clip-path="url(#clip1_207_2)">
<g clip-path="url(#clip2_207_2)">
<path d="M0.511719 20.4077L32.0194 8.59229L63.5271 20.4077M63.5271 8.59229L32.0194 20.4077L0.511719 8.59229" stroke="#EFC9A4" stroke-width="0.492308"/>
</g>
</g>
</g>
<path d="M74.0435 13.502V12.458H76.0775C76.4735 12.458 76.8215 12.392 77.1215 12.26C77.4215 12.128 77.6555 11.942 77.8235 11.702C77.9915 11.45 78.0755 11.15 78.0755 10.802C78.0755 10.274 77.8895 9.866 77.5175 9.578C77.1455 9.29 76.6655 9.146 76.0775 9.146H74.5475V18.254H76.3115C76.7915 18.254 77.2175 18.176 77.5895 18.02C77.9615 17.864 78.2555 17.63 78.4715 17.318C78.6875 17.006 78.7955 16.616 78.7955 16.148C78.7955 15.812 78.7295 15.518 78.5975 15.266C78.4775 15.002 78.3035 14.786 78.0755 14.618C77.8595 14.438 77.6015 14.312 77.3015 14.24C77.0015 14.156 76.6715 14.114 76.3115 14.114H74.0435V12.944H76.4375C77.0495 12.944 77.6255 13.01 78.1655 13.142C78.7055 13.274 79.1855 13.478 79.6055 13.754C80.0375 14.03 80.3735 14.384 80.6135 14.816C80.8535 15.248 80.9735 15.764 80.9735 16.364C80.9735 17.192 80.7755 17.876 80.3795 18.416C79.9955 18.956 79.4615 19.358 78.7775 19.622C78.1055 19.874 77.3255 20 76.4375 20H72.4235V7.4H76.2215C77.0135 7.4 77.7095 7.514 78.3095 7.742C78.9215 7.97 79.3955 8.318 79.7315 8.786C80.0795 9.254 80.2535 9.848 80.2535 10.568C80.2535 11.192 80.0795 11.726 79.7315 12.17C79.3955 12.602 78.9215 12.932 78.3095 13.16C77.7095 13.388 77.0135 13.502 76.2215 13.502H74.0435ZM84.5305 20V18.128H90.8845V20H84.5305ZM84.5305 9.272V7.4H90.8845V9.272H84.5305ZM84.5305 14.168V12.332H90.5245V14.168H84.5305ZM83.2165 7.4H85.3045V20H83.2165V7.4ZM104.894 15.842L107.846 7.4H110.312L105.164 20.666L101.276 11.756L97.3877 20.666L92.2397 7.4H94.7057L97.6937 15.842L101.276 6.77L104.894 15.842ZM113.165 20V18.128H119.519V20H113.165ZM113.165 9.272V7.4H119.519V9.272H113.165ZM113.165 14.168V12.332H119.159V14.168H113.165ZM111.851 7.4H113.939V20H111.851V7.4ZM124.726 13.988H127.03L131.296 20H128.74L124.726 13.988ZM122.134 7.4H124.258V20H122.134V7.4ZM123.394 9.236V7.4H126.022C126.934 7.4 127.726 7.562 128.398 7.886C129.082 8.21 129.61 8.666 129.982 9.254C130.354 9.83 130.54 10.514 130.54 11.306C130.54 12.098 130.354 12.788 129.982 13.376C129.61 13.964 129.082 14.42 128.398 14.744C127.726 15.068 126.934 15.23 126.022 15.23H123.394V13.484H125.932C126.412 13.484 126.832 13.4 127.192 13.232C127.564 13.064 127.852 12.824 128.056 12.512C128.26 12.188 128.362 11.804 128.362 11.36C128.362 10.904 128.26 10.52 128.056 10.208C127.852 9.896 127.564 9.656 127.192 9.488C126.832 9.32 126.412 9.236 125.932 9.236H123.394ZM131.58 9.362V7.4H140.364V9.362H137.034V20H134.892V9.362H131.58ZM141.82 7.4H143.944V15.77C143.944 16.55 144.148 17.18 144.556 17.66C144.976 18.128 145.594 18.362 146.41 18.362C147.214 18.362 147.826 18.128 148.246 17.66C148.666 17.18 148.876 16.55 148.876 15.77V7.4H151V15.86C151 16.556 150.886 17.18 150.658 17.732C150.442 18.272 150.13 18.734 149.722 19.118C149.314 19.502 148.828 19.796 148.264 20C147.7 20.204 147.082 20.306 146.41 20.306C145.738 20.306 145.12 20.204 144.556 20C143.992 19.796 143.5 19.502 143.08 19.118C142.672 18.734 142.36 18.272 142.144 17.732C141.928 17.18 141.82 16.556 141.82 15.86V7.4ZM162.92 7.4H165.008V20.63L155.81 11.54V20H153.722V6.77L162.92 15.86V7.4ZM173.796 15.212V13.412H179.862C179.886 14.336 179.766 15.212 179.502 16.04C179.238 16.856 178.842 17.582 178.314 18.218C177.786 18.854 177.126 19.358 176.334 19.73C175.554 20.09 174.666 20.27 173.67 20.27C172.722 20.27 171.846 20.114 171.042 19.802C170.238 19.478 169.536 19.022 168.936 18.434C168.348 17.846 167.892 17.15 167.568 16.346C167.244 15.542 167.082 14.66 167.082 13.7C167.082 12.74 167.244 11.864 167.568 11.072C167.904 10.268 168.366 9.578 168.954 9.002C169.554 8.414 170.256 7.964 171.06 7.652C171.876 7.34 172.758 7.184 173.706 7.184C174.534 7.184 175.284 7.298 175.956 7.526C176.628 7.742 177.228 8.06 177.756 8.48C178.296 8.888 178.752 9.386 179.124 9.974L177.396 11.126C177.048 10.526 176.562 10.046 175.938 9.686C175.326 9.326 174.582 9.146 173.706 9.146C172.89 9.146 172.152 9.338 171.492 9.722C170.832 10.094 170.304 10.622 169.908 11.306C169.512 11.978 169.314 12.776 169.314 13.7C169.314 14.612 169.506 15.416 169.89 16.112C170.286 16.796 170.814 17.33 171.474 17.714C172.134 18.098 172.878 18.29 173.706 18.29C174.27 18.29 174.774 18.212 175.218 18.056C175.662 17.9 176.046 17.678 176.37 17.39C176.694 17.102 176.964 16.772 177.18 16.4C177.396 16.028 177.558 15.632 177.666 15.212H173.796ZM183.355 20V18.128H189.709V20H183.355ZM183.355 9.272V7.4H189.709V9.272H183.355ZM183.355 14.168V12.332H189.349V14.168H183.355ZM182.041 7.4H184.129V20H182.041V7.4ZM201.522 7.4H203.61V20.63L194.412 11.54V20H192.324V6.77L201.522 15.86V7.4ZM206.188 8.156L207.826 7.364L210.526 10.244L209.428 10.856L206.188 8.156Z" fill="#EFC9A4"/>
<g clip-path="url(#clip3_207_2)">
<g clip-path="url(#clip4_207_2)">
<g clip-path="url(#clip5_207_2)">
<path d="M219.512 20.4077L251.019 8.59229L282.527 20.4077M282.527 8.59229L251.019 20.4077L219.512 8.59229" stroke="#EFC9A4" stroke-width="0.492308"/>
</g>
</g>
</g>
<defs>
<clipPath id="clip0_207_2">
<rect width="64" height="12" fill="white" transform="translate(0.0195312 8.5)"/>
</clipPath>
<clipPath id="clip1_207_2">
<rect width="64" height="12" fill="white" transform="translate(0.0195312 8.5)"/>
</clipPath>
<clipPath id="clip2_207_2">
<rect width="64" height="13.7846" fill="white" transform="translate(0.0195312 7.60791)"/>
</clipPath>
<clipPath id="clip3_207_2">
<rect width="64" height="12" fill="white" transform="translate(219.02 8.5)"/>
</clipPath>
<clipPath id="clip4_207_2">
<rect width="64" height="12" fill="white" transform="translate(219.02 8.5)"/>
</clipPath>
<clipPath id="clip5_207_2">
<rect width="64" height="13.7846" fill="white" transform="translate(219.02 7.60791)"/>
</clipPath>
</defs>
</svg>
