<svg width="284" height="29" viewBox="0 0 284 29" fill="none" xmlns="http://www.w3.org/2000/svg">
<g clip-path="url(#clip0_107_2007)">
<g clip-path="url(#clip1_107_2007)">
<g clip-path="url(#clip2_107_2007)">
<path d="M0.512207 19.9477L32.0199 8.13232L63.5276 19.9477M63.5276 8.13232L32.0199 19.9477L0.512207 8.13232" stroke="#EFC9A4" stroke-width="0.492308"/>
</g>
</g>
</g>
<path d="M83.044 13.502V12.458H85.078C85.474 12.458 85.822 12.392 86.122 12.26C86.422 12.128 86.656 11.942 86.824 11.702C86.992 11.45 87.076 11.15 87.076 10.802C87.076 10.274 86.89 9.866 86.518 9.578C86.146 9.29 85.666 9.146 85.078 9.146H83.548V18.254H85.312C85.792 18.254 86.218 18.176 86.59 18.02C86.962 17.864 87.256 17.63 87.472 17.318C87.688 17.006 87.796 16.616 87.796 16.148C87.796 15.812 87.73 15.518 87.598 15.266C87.478 15.002 87.304 14.786 87.076 14.618C86.86 14.438 86.602 14.312 86.302 14.24C86.002 14.156 85.672 14.114 85.312 14.114H83.044V12.944H85.438C86.05 12.944 86.626 13.01 87.166 13.142C87.706 13.274 88.186 13.478 88.606 13.754C89.038 14.03 89.374 14.384 89.614 14.816C89.854 15.248 89.974 15.764 89.974 16.364C89.974 17.192 89.776 17.876 89.38 18.416C88.996 18.956 88.462 19.358 87.778 19.622C87.106 19.874 86.326 20 85.438 20H81.424V7.4H85.222C86.014 7.4 86.71 7.514 87.31 7.742C87.922 7.97 88.396 8.318 88.732 8.786C89.08 9.254 89.254 9.848 89.254 10.568C89.254 11.192 89.08 11.726 88.732 12.17C88.396 12.602 87.922 12.932 87.31 13.16C86.71 13.388 86.014 13.502 85.222 13.502H83.044ZM93.531 20V18.128H99.885V20H93.531ZM93.531 9.272V7.4H99.885V9.272H93.531ZM93.531 14.168V12.332H99.525V14.168H93.531ZM92.217 7.4H94.305V20H92.217V7.4ZM113.894 15.842L116.846 7.4H119.312L114.164 20.666L110.276 11.756L106.388 20.666L101.24 7.4H103.706L106.694 15.842L110.276 6.77L113.894 15.842ZM122.166 20V18.128H128.52V20H122.166ZM122.166 9.272V7.4H128.52V9.272H122.166ZM122.166 14.168V12.332H128.16V14.168H122.166ZM120.852 7.4H122.94V20H120.852V7.4ZM133.727 13.988H136.031L140.297 20H137.741L133.727 13.988ZM131.135 7.4H133.259V20H131.135V7.4ZM132.395 9.236V7.4H135.023C135.935 7.4 136.727 7.562 137.399 7.886C138.083 8.21 138.611 8.666 138.983 9.254C139.355 9.83 139.541 10.514 139.541 11.306C139.541 12.098 139.355 12.788 138.983 13.376C138.611 13.964 138.083 14.42 137.399 14.744C136.727 15.068 135.935 15.23 135.023 15.23H132.395V13.484H134.933C135.413 13.484 135.833 13.4 136.193 13.232C136.565 13.064 136.853 12.824 137.057 12.512C137.261 12.188 137.363 11.804 137.363 11.36C137.363 10.904 137.261 10.52 137.057 10.208C136.853 9.896 136.565 9.656 136.193 9.488C135.833 9.32 135.413 9.236 134.933 9.236H132.395ZM140.58 9.362V7.4H149.364V9.362H146.034V20H143.892V9.362H140.58ZM150.82 7.4H152.944V15.77C152.944 16.55 153.148 17.18 153.556 17.66C153.976 18.128 154.594 18.362 155.41 18.362C156.214 18.362 156.826 18.128 157.246 17.66C157.666 17.18 157.876 16.55 157.876 15.77V7.4H160V15.86C160 16.556 159.886 17.18 159.658 17.732C159.442 18.272 159.13 18.734 158.722 19.118C158.314 19.502 157.828 19.796 157.264 20C156.7 20.204 156.082 20.306 155.41 20.306C154.738 20.306 154.12 20.204 153.556 20C152.992 19.796 152.5 19.502 152.08 19.118C151.672 18.734 151.36 18.272 151.144 17.732C150.928 17.18 150.82 16.556 150.82 15.86V7.4ZM171.921 7.4H174.009V20.63L164.811 11.54V20H162.723V6.77L171.921 15.86V7.4ZM182.797 15.212V13.412H188.863C188.887 14.336 188.767 15.212 188.503 16.04C188.239 16.856 187.843 17.582 187.315 18.218C186.787 18.854 186.127 19.358 185.335 19.73C184.555 20.09 183.667 20.27 182.671 20.27C181.723 20.27 180.847 20.114 180.043 19.802C179.239 19.478 178.537 19.022 177.937 18.434C177.349 17.846 176.893 17.15 176.569 16.346C176.245 15.542 176.083 14.66 176.083 13.7C176.083 12.74 176.245 11.864 176.569 11.072C176.905 10.268 177.367 9.578 177.955 9.002C178.555 8.414 179.257 7.964 180.061 7.652C180.877 7.34 181.759 7.184 182.707 7.184C183.535 7.184 184.285 7.298 184.957 7.526C185.629 7.742 186.229 8.06 186.757 8.48C187.297 8.888 187.753 9.386 188.125 9.974L186.397 11.126C186.049 10.526 185.563 10.046 184.939 9.686C184.327 9.326 183.583 9.146 182.707 9.146C181.891 9.146 181.153 9.338 180.493 9.722C179.833 10.094 179.305 10.622 178.909 11.306C178.513 11.978 178.315 12.776 178.315 13.7C178.315 14.612 178.507 15.416 178.891 16.112C179.287 16.796 179.815 17.33 180.475 17.714C181.135 18.098 181.879 18.29 182.707 18.29C183.271 18.29 183.775 18.212 184.219 18.056C184.663 17.9 185.047 17.678 185.371 17.39C185.695 17.102 185.965 16.772 186.181 16.4C186.397 16.028 186.559 15.632 186.667 15.212H182.797ZM192.355 20V18.128H198.709V20H192.355ZM192.355 9.272V7.4H198.709V9.272H192.355ZM192.355 14.168V12.332H198.349V14.168H192.355ZM191.041 7.4H193.129V20H191.041V7.4ZM210.522 7.4H212.61V20.63L203.412 11.54V20H201.324V6.77L210.522 15.86V7.4ZM215.188 8.156L216.826 7.364L219.526 10.244L218.428 10.856L215.188 8.156Z" fill="#EFC9A4"/>
<g clip-path="url(#clip3_107_2007)">
<g clip-path="url(#clip4_107_2007)">
<g clip-path="url(#clip5_107_2007)">
<path d="M220.462 19.9477L251.97 8.13232L283.478 19.9477M283.478 8.13232L251.97 19.9477L220.462 8.13232" stroke="#EFC9A4" stroke-width="0.492308"/>
</g>
</g>
</g>
<defs>
<clipPath id="clip0_107_2007">
<rect width="64" height="12" fill="white" transform="translate(0.0200195 8.04004)"/>
</clipPath>
<clipPath id="clip1_107_2007">
<rect width="64" height="12" fill="white" transform="translate(0.0200195 8.04004)"/>
</clipPath>
<clipPath id="clip2_107_2007">
<rect width="64" height="13.7846" fill="white" transform="translate(0.0200195 7.14795)"/>
</clipPath>
<clipPath id="clip3_107_2007">
<rect width="64" height="12" fill="white" transform="translate(219.97 8.04004)"/>
</clipPath>
<clipPath id="clip4_107_2007">
<rect width="64" height="12" fill="white" transform="translate(219.97 8.04004)"/>
</clipPath>
<clipPath id="clip5_107_2007">
<rect width="64" height="13.7846" fill="white" transform="translate(219.97 7.14795)"/>
</clipPath>
</defs>
</svg>
